<?xml version="1.0" encoding="us-ascii" standalone="no"?><svg xmlns="http://www.w3.org/2000/svg" xmlns:xlink="http://www.w3.org/1999/xlink" contentStyleType="text/css" height="760px" preserveAspectRatio="none" style="width:745px;height:760px;background:#FFFFFF;" version="1.1" viewBox="0 0 745 760" width="745px" zoomAndPan="magnify"><defs/><g><!--cluster backend--><g id="cluster_backend"><path d="M8.5,6.0137 L69.5,6.0137 A3.75,3.75 0 0 1 72,8.5137 L79,30.6348 L735.5,30.6348 A2.5,2.5 0 0 1 738,33.1348 L738,750.5137 A2.5,2.5 0 0 1 735.5,753.0137 L8.5,753.0137 A2.5,2.5 0 0 1 6,750.5137 L6,8.5137 A2.5,2.5 0 0 1 8.5,6.0137 " fill="none" style="stroke:#000000;stroke-width:1.5;"/><line style="stroke:#000000;stroke-width:1.5;" x1="6" x2="79" y1="30.6348" y2="30.6348"/><text fill="#000000" font-family="sans-serif" font-size="14" font-weight="bold" lengthAdjust="spacing" textLength="60" x="10" y="23.1211">backend</text></g><!--cluster providers--><g id="cluster_providers"><path d="M32.5,166.0137 L102.5,166.0137 A3.75,3.75 0 0 1 105,168.5137 L112,190.6348 L569.5,190.6348 A2.5,2.5 0 0 1 572,193.1348 L572,726.5137 A2.5,2.5 0 0 1 569.5,729.0137 L32.5,729.0137 A2.5,2.5 0 0 1 30,726.5137 L30,168.5137 A2.5,2.5 0 0 1 32.5,166.0137 " fill="none" style="stroke:#000000;stroke-width:1.5;"/><line style="stroke:#000000;stroke-width:1.5;" x1="30" x2="112" y1="190.6348" y2="190.6348"/><text fill="#000000" font-family="sans-serif" font-size="14" font-weight="bold" lengthAdjust="spacing" textLength="69" x="34" y="183.1211">providers</text></g><!--class Backend--><g id="elem_Backend"><rect codeLine="9" fill="#F1F1F1" height="100.4844" id="Backend" rx="2.5" ry="2.5" style="stroke:#181818;stroke-width:0.5;" width="250" x="274" y="43.0137"/><text fill="#000000" font-family="sans-serif" font-size="14" lengthAdjust="spacing" textLength="55" x="371.5" y="63.1211">Backend</text><line style="stroke:#181818;stroke-width:0.5;" x1="275" x2="523" y1="71.6348" y2="71.6348"/><rect fill="none" height="6" style="stroke:#C82930;stroke-width:1.0;" width="6" x="282" y="83.4453"/><text fill="#000000" font-family="sans-serif" font-size="14" lengthAdjust="spacing" textLength="224" x="294" y="90.7422">m_providerman : ProviderManager*</text><line style="stroke:#181818;stroke-width:0.5;" x1="275" x2="523" y1="98.2559" y2="98.2559"/><rect fill="#F24D5C" height="6" style="stroke:#C82930;stroke-width:1.0;" width="6" x="282" y="110.0664"/><text fill="#000000" font-family="sans-serif" font-size="14" lengthAdjust="spacing" textLength="165" x="294" y="117.3633">onScanRequested() : void</text><ellipse cx="285" cy="131.6875" fill="#84BE84" rx="3" ry="3" style="stroke:#038048;stroke-width:1.0;"/><text fill="#000000" font-family="sans-serif" font-size="14" lengthAdjust="spacing" textLength="76" x="294" y="135.9844">start() : void</text></g><!--class AppSettings--><g id="elem_AppSettings"><rect codeLine="15" fill="#F1F1F1" height="55.2422" id="AppSettings" rx="2.5" ry="2.5" style="stroke:#181818;stroke-width:0.5;" width="133" x="588.5" y="345.0137"/><text fill="#000000" font-family="sans-serif" font-size="14" lengthAdjust="spacing" textLength="76" x="617" y="365.1211">AppSettings</text><line style="stroke:#181818;stroke-width:0.5;" x1="589.5" x2="720.5" y1="373.6348" y2="373.6348"/><ellipse cx="599.5" cy="388.4453" fill="#84BE84" rx="3" ry="3" style="stroke:#038048;stroke-width:1.0;"/><text fill="#000000" font-family="sans-serif" font-size="14" lengthAdjust="spacing" text-decoration="underline" textLength="107" x="608.5" y="392.7422">providers() : void</text></g><!--class ProviderManager--><g id="elem_ProviderManager"><rect codeLine="21" fill="#F1F1F1" height="81.8633" id="ProviderManager" rx="2.5" ry="2.5" style="stroke:#181818;stroke-width:0.5;" width="314" x="242" y="203.0137"/><text fill="#000000" font-family="sans-serif" font-size="14" lengthAdjust="spacing" textLength="109" x="344.5" y="223.1211">ProviderManager</text><line style="stroke:#181818;stroke-width:0.5;" x1="243" x2="555" y1="231.6348" y2="231.6348"/><rect fill="none" height="6" style="stroke:#C82930;stroke-width:1.0;" width="6" x="250" y="243.4453"/><text fill="#000000" font-family="sans-serif" font-size="14" lengthAdjust="spacing" textLength="288" x="262" y="250.7422">m_found_games : std::vector&lt;model::Game*&gt;</text><line style="stroke:#181818;stroke-width:0.5;" x1="243" x2="555" y1="258.2559" y2="258.2559"/><ellipse cx="253" cy="273.0664" fill="#84BE84" rx="3" ry="3" style="stroke:#038048;stroke-width:1.0;"/><text fill="#000000" font-family="sans-serif" font-size="14" lengthAdjust="spacing" textLength="69" x="262" y="277.3633">run() : void</text></g><!--class Provider--><g id="elem_Provider"><rect codeLine="26" fill="#F1F1F1" height="73.8633" id="Provider" rx="2.5" ry="2.5" style="stroke:#181818;stroke-width:0.5;" width="237" x="147.5" y="460.0137"/><text fill="#000000" font-family="sans-serif" font-size="14" lengthAdjust="spacing" textLength="53" x="239.5" y="480.1211">Provider</text><line style="stroke:#181818;stroke-width:0.5;" x1="148.5" x2="383.5" y1="488.6348" y2="488.6348"/><ellipse cx="158.5" cy="503.4453" fill="#84BE84" rx="3" ry="3" style="stroke:#038048;stroke-width:1.0;"/><text fill="#000000" font-family="sans-serif" font-size="14" lengthAdjust="spacing" textLength="211" x="167.5" y="507.7422">run(SearchContext &amp;) : Provider&amp;</text><ellipse cx="158.5" cy="522.0664" fill="#84BE84" rx="3" ry="3" style="stroke:#038048;stroke-width:1.0;"/><text fill="#000000" font-family="sans-serif" font-size="14" lengthAdjust="spacing" textLength="182" x="167.5" y="526.3633">setEnabled(bool) : Provider&amp;</text></g><!--class SearchContext--><g id="elem_SearchContext"><rect codeLine="30" fill="#F1F1F1" height="119.1055" id="SearchContext" rx="2.5" ry="2.5" style="stroke:#181818;stroke-width:0.5;" width="509" x="46.5" y="594.0137"/><text fill="#000000" font-family="sans-serif" font-size="14" lengthAdjust="spacing" textLength="93" x="254.5" y="614.1211">SearchContext</text><line style="stroke:#181818;stroke-width:0.5;" x1="47.5" x2="554.5" y1="622.6348" y2="622.6348"/><rect fill="none" height="6" style="stroke:#C82930;stroke-width:1.0;" width="6" x="54.5" y="634.4453"/><text fill="#000000" font-family="sans-serif" font-size="14" lengthAdjust="spacing" textLength="483" x="66.5" y="641.7422">m_game_entries : HashMap&lt;model::Game*, std::vector&lt;model::GameFile*&gt;&gt;</text><line style="stroke:#181818;stroke-width:0.5;" x1="47.5" x2="554.5" y1="649.2559" y2="649.2559"/><ellipse cx="57.5" cy="664.0664" fill="#84BE84" rx="3" ry="3" style="stroke:#038048;stroke-width:1.0;"/><text fill="#000000" font-family="sans-serif" font-size="14" lengthAdjust="spacing" textLength="325" x="66.5" y="668.3633">pegasus_add_game_dir(QString) : SearchContext&amp;</text><ellipse cx="57.5" cy="682.6875" fill="#84BE84" rx="3" ry="3" style="stroke:#038048;stroke-width:1.0;"/><text fill="#000000" font-family="sans-serif" font-size="14" lengthAdjust="spacing" textLength="194" x="66.5" y="686.9844">create_game() : model::Game*</text><ellipse cx="57.5" cy="701.3086" fill="#84BE84" rx="3" ry="3" style="stroke:#038048;stroke-width:1.0;"/><text fill="#000000" font-family="sans-serif" font-size="14" lengthAdjust="spacing" textLength="408" x="66.5" y="705.6055">game_add_filepath(model::Game &amp;, QString) : model::GameFile*</text></g><!--class PegasusProvider--><g id="elem_PegasusProvider"><rect codeLine="36" fill="#FFFF00" height="28.6211" id="PegasusProvider" rx="2.5" ry="2.5" style="stroke:#181818;stroke-width:0.5;" width="114" x="216" y="358.0137"/><text fill="#000000" font-family="sans-serif" font-size="14" lengthAdjust="spacing" textLength="108" x="219" y="378.1211">PegasusProvider</text></g><!--class SteamProvider--><g id="elem_SteamProvider"><rect codeLine="37" fill="#FFFF00" height="28.6211" id="SteamProvider" rx="2.5" ry="2.5" style="stroke:#181818;stroke-width:0.5;" width="99" x="81.5" y="358.0137"/><text fill="#000000" font-family="sans-serif" font-size="14" lengthAdjust="spacing" textLength="93" x="84.5" y="378.1211">SteamProvider</text></g><!--reverse link Backend to ProviderManager--><g id="link_Backend_ProviderManager"><path codeLine="42" d="M399,155.2937 C399,174.6837 399,184.5837 399,202.9937 " fill="none" id="Backend-backto-ProviderManager" style="stroke:#181818;stroke-width:1.0;"/><polygon fill="#181818" points="399,143.2937,395,149.2937,399,155.2937,403,149.2937,399,143.2937" style="stroke:#181818;stroke-width:1.0;"/><text fill="#000000" font-family="sans-serif" font-size="13" lengthAdjust="spacing" textLength="7" x="391.5078" y="165.5743">1</text><text fill="#000000" font-family="sans-serif" font-size="13" lengthAdjust="spacing" textLength="7" x="391.4203" y="191.8557">1</text></g><!--reverse link AppSettings to Provider--><g id="link_AppSettings_Provider"><path codeLine="44" d="M576.41,394.0137 C491.16,394.0137 366.33,394.0137 366.33,394.0137 C366.33,394.0137 366.33,430.3237 366.33,459.8237 " fill="none" id="AppSettings-backto-Provider" style="stroke:#181818;stroke-width:1.0;"/><polygon fill="#181818" points="588.41,394.0137,582.41,390.0137,576.41,394.0137,582.41,398.0137,588.41,394.0137" style="stroke:#181818;stroke-width:1.0;"/><text fill="#000000" font-family="sans-serif" font-size="13" lengthAdjust="spacing" textLength="7" x="573.3058" y="392.5479">1</text><text fill="#000000" font-family="sans-serif" font-size="13" lengthAdjust="spacing" textLength="5" x="378.756" y="448.7516">*</text></g><!--reverse link ProviderManager to SearchContext--><g id="link_ProviderManager_SearchContext"><path codeLine="46" d="M441.5,297.1537 C441.5,369.9637 441.5,509.7737 441.5,593.9937 " fill="none" id="ProviderManager-backto-SearchContext" style="stroke:#181818;stroke-width:1.0;"/><polygon fill="none" points="441.5,285.1537,437.5,291.1537,441.5,297.1537,445.5,291.1537,441.5,285.1537" style="stroke:#181818;stroke-width:1.0;"/><path d="M446.5,444.5737 L446.5,488.5737 L631.5,488.5737 L631.5,454.5737 L621.5,444.5737 L446.5,444.5737 " fill="#FEFFDD" style="stroke:#181818;stroke-width:0.5;"/><path d="M621.5,444.5737 L621.5,454.5737 L631.5,454.5737 L621.5,444.5737 " fill="#FEFFDD" style="stroke:#181818;stroke-width:0.5;"/><text fill="#000000" font-family="sans-serif" font-size="13" lengthAdjust="spacing" textLength="88" x="452.5" y="463.602">Create and use</text><text fill="#000000" font-family="sans-serif" font-size="13" lengthAdjust="spacing" textLength="164" x="452.5" y="480.893">SearchContext in every run()</text><text fill="#000000" font-family="sans-serif" font-size="13" lengthAdjust="spacing" textLength="7" x="440.4719" y="306.8159">1</text><text fill="#000000" font-family="sans-serif" font-size="13" lengthAdjust="spacing" textLength="7" x="451.1969" y="582.7434">1</text></g><!--link ProviderManager to Provider--><g id="link_ProviderManager_Provider"><path codeLine="49" d="M348.17,285.2237 C348.17,333.6737 348.17,407.3637 348.17,453.9437 " fill="none" id="ProviderManager-to-Provider" style="stroke:#181818;stroke-width:1.0;"/><polygon fill="#181818" points="348.17,459.9437,352.17,450.9437,348.17,454.9437,344.17,450.9437,348.17,459.9437" style="stroke:#181818;stroke-width:1.0;"/><text fill="#000000" font-family="sans-serif" font-size="13" lengthAdjust="spacing" textLength="112" x="349.17" y="368.612">run(SearchContext)</text></g><!--link ProviderManager to AppSettings--><g id="link_ProviderManager_AppSettings"><path codeLine="51" d="M498.5,285.1537 C498.5,315.6737 498.5,352.0137 498.5,352.0137 C498.5,352.0137 539.64,352.0137 582.18,352.0137 " fill="none" id="ProviderManager-to-AppSettings" style="stroke:#181818;stroke-width:1.0;"/><polygon fill="#181818" points="588.18,352.0137,579.18,348.0137,583.18,352.0137,579.18,356.0137,588.18,352.0137" style="stroke:#181818;stroke-width:1.0;"/><text fill="#000000" font-family="sans-serif" font-size="13" lengthAdjust="spacing" textLength="52" x="456.91" y="348.042">provider()</text></g><!--link PegasusProvider to Provider--><g id="link_PegasusProvider_Provider"><path codeLine="53" d="M273,387.2837 C273,405.0637 273,417.5637 273,441.8937 " fill="none" id="PegasusProvider-to-Provider" style="stroke:#181818;stroke-width:1.0;"/><polygon fill="none" points="273,459.8937,279,441.8937,267,441.8937,273,459.8937" style="stroke:#181818;stroke-width:1.0;"/></g><!--link SteamProvider to Provider--><g id="link_SteamProvider_Provider"><path codeLine="55" d="M164,387.2837 C164,405.0637 164,417.5637 164,441.8937 " fill="none" id="SteamProvider-to-Provider" style="stroke:#181818;stroke-width:1.0;"/><polygon fill="none" points="164,459.8937,170,441.8937,158,441.8937,164,459.8937" style="stroke:#181818;stroke-width:1.0;"/></g><!--SRC=[TLDDZziW43s7Nu6sKfHDreTUhSfIk-fkBojjcsibQm8J6yK62ZXjbEv_Bn37DawNYsruC-_3GoquKYOCQv3KuHrRxKwqHLShdkwqEpJ47eJKOA2bZP3eJXgfCXvBY8GMhGQ6T0ViW9BJCo4Bre2rzCkmirXaRQcDElhEfWL9S_hQVxs0X0hDEc2Kt3AGF_1NXzOXNzrxt549xiysre5navstWUQprbjqJiZAHghDsMETO6_qocZ7EkfNA1rr3w0Wl6yv4nVR1WjxrKbULg7MDxIEv_aHcLFcKwiuDdd-x8_MHK1lJ2TJsfxw-feoNIXYqHR1iFfHIOT_75tUJy9QHf15zrN2hl49xPHgKi38b1AbNS_3QLZUMV1KedH6H6lVmDOle1DR3-yPVXADDrqaBJSQAx2TBO5V0YkvCAllMqyWgw0uqRDCQvb1S1ZBOeHJ5IaoTWuKUwz1WwjN4onTFj09urpnkr6zNgGFl-R32Pj6_Pu7wX3Q6uoVI_-FoNNqxpxUqNMMnUTig0YP3cuFzCZrY2HaFeW1fhAixvXaIAHo_bhkmnKzUBkFCKGANaLdyQTC1q18YaSq9nh7z9R8KnHqdCwStapcVukAv3Rcm-MA5BDOi-nlCR6QvZax_0S0]--></g></svg>